<?xml version="1.0" encoding="utf-8"?>
<!-- Generator: Adobe Illustrator 24.3.0, SVG Export Plug-In . SVG Version: 6.00 Build 0)  -->
<svg version="1.1" id="Layer_1" xmlns="http://www.w3.org/2000/svg" xmlns:xlink="http://www.w3.org/1999/xlink" x="0px" y="0px"
	 viewBox="0 0 575.57 136.13" style="enable-background:new 0 0 575.57 136.13;" xml:space="preserve">
<style type="text/css">
	.st0{fill:#C74A27;}
	.st1{fill:url(#SVGID_1_);}
	.st2{fill:url(#SVGID_2_);}
	.st3{fill:url(#SVGID_3_);}
	.st4{fill:url(#SVGID_4_);}
	.st5{fill:url(#SVGID_5_);}
	.st6{fill:url(#SVGID_6_);}
	.st7{fill:url(#SVGID_7_);}
</style>
<g>
	<g>
		<path class="st0" d="M339.27,45.57h58.1V60.1h14.52v43.57h-14.52v14.52h-58.1v-14.52h-14.52V60.1h14.52V45.57z M353.79,60.1v43.57
			h29.05V60.1H353.79z"/>
		<linearGradient id="SVGID_1_" gradientUnits="userSpaceOnUse" x1="368.3194" y1="123.2331" x2="368.3194" y2="-26.4522">
			<stop  offset="0.176" style="stop-color:#F7CB22"/>
			<stop  offset="1" style="stop-color:#F04B23"/>
		</linearGradient>
		<path class="st1" d="M339.27,31.05h58.1v14.52h14.52v43.57h-14.52v14.52h-58.1V89.15h-14.52V45.57h14.52V31.05z M353.79,45.57
			v43.57h29.05V45.57H353.79z"/>
	</g>
	<g>
		<path class="st0" d="M16.83,45.57h58.1V60.1h14.52v14.52H74.92v14.52h14.52v29.05H74.92v14.52h-58.1V118.2H2.3v-14.52h29.05v14.52
			H60.4V89.15H16.83V74.62H2.3V60.1h14.52V45.57z M31.35,60.1v14.52h43.57V60.1H31.35z"/>
		<linearGradient id="SVGID_2_" gradientUnits="userSpaceOnUse" x1="45.876" y1="123.2331" x2="45.876" y2="-26.4522">
			<stop  offset="0.176" style="stop-color:#F7CB22"/>
			<stop  offset="1" style="stop-color:#F04B23"/>
		</linearGradient>
		<path class="st2" d="M16.83,31.05h58.1v14.52h14.52V60.1H74.92v14.52h14.52v29.05H74.92v14.52h-58.1v-14.52H2.3V89.15h29.05v14.52
			H60.4V74.62H16.83V60.1H2.3V45.57h14.52V31.05z M31.35,45.57V60.1h43.57V45.57H31.35z"/>
	</g>
	<g>
		<path class="st0" d="M103.97,60.1h58.1v14.52h14.52v43.57h-14.52v14.52h-58.1V118.2H89.45V74.62h14.52V60.1z M118.5,74.62v43.57
			h29.05V74.62H118.5z"/>
		<linearGradient id="SVGID_3_" gradientUnits="userSpaceOnUse" x1="133.0228" y1="123.2331" x2="133.0228" y2="-26.4522">
			<stop  offset="0.176" style="stop-color:#F7CB22"/>
			<stop  offset="1" style="stop-color:#F04B23"/>
		</linearGradient>
		<path class="st3" d="M103.97,45.57h58.1V60.1h14.52v43.57h-14.52v14.52h-58.1v-14.52H89.45V60.1h14.52V45.57z M118.5,60.1v43.57
			h29.05V60.1H118.5z"/>
	</g>
	<g>
		<path class="st0" d="M176.6,31.05h29.05v87.15h29.05v14.52h-43.57V118.2H176.6V31.05z"/>
		<linearGradient id="SVGID_4_" gradientUnits="userSpaceOnUse" x1="205.6452" y1="123.2331" x2="205.6452" y2="-26.4522">
			<stop  offset="0.176" style="stop-color:#F7CB22"/>
			<stop  offset="1" style="stop-color:#F04B23"/>
		</linearGradient>
		<path class="st4" d="M176.6,16.52h29.05v87.15h29.05v14.52h-43.57v-14.52H176.6V16.52z"/>
	</g>
	<g>
		<path class="st0" d="M420.61,16.52h29.05v14.52h29.05v14.52h-29.05v43.57h14.52V74.62h29.05v14.52h-14.52v14.52h-43.57V89.15
			h-14.52V45.57h-14.52V31.05h14.52V16.52z"/>
		<linearGradient id="SVGID_5_" gradientUnits="userSpaceOnUse" x1="449.6568" y1="123.2331" x2="449.6568" y2="-26.4522">
			<stop  offset="0.176" style="stop-color:#F7CB22"/>
			<stop  offset="1" style="stop-color:#F04B23"/>
		</linearGradient>
		<path class="st5" d="M420.61,2h29.05v14.52h29.05v14.52h-29.05v43.57h14.52V60.1h29.05v14.52h-14.52v14.52h-43.57V74.62h-14.52
			V31.05h-14.52V16.52h14.52V2z"/>
	</g>
	<g>
		<path class="st0" d="M501.94,31.05h58.1v14.52h-43.57V60.1h43.57v14.52h14.52v14.52h-14.52v14.52h-72.62V89.15h58.1V74.62h-43.57
			V60.1h-14.52V45.57h14.52V31.05z"/>
		<linearGradient id="SVGID_6_" gradientUnits="userSpaceOnUse" x1="530.9936" y1="123.2331" x2="530.9936" y2="-26.4522">
			<stop  offset="0.176" style="stop-color:#F7CB22"/>
			<stop  offset="1" style="stop-color:#F04B23"/>
		</linearGradient>
		<path class="st6" d="M501.94,16.52h58.1v14.52h-43.57v14.52h43.57V60.1h14.52v14.52h-14.52v14.52h-72.62V74.62h58.1V60.1h-43.57
			V45.57h-14.52V31.05h14.52V16.52z"/>
	</g>
	<g>
		<path class="st0" d="M243.41,45.57h72.62V60.1h14.52v14.52h-14.52v14.52h14.52v29.05h-14.52v14.52h-72.62V45.57z M272.46,60.1
			v14.52h29.05V60.1H272.46z M272.46,89.15v29.05h29.05V89.15H272.46z"/>
		<linearGradient id="SVGID_7_" gradientUnits="userSpaceOnUse" x1="286.982" y1="123.2331" x2="286.982" y2="-26.4522">
			<stop  offset="0.176" style="stop-color:#F7CB22"/>
			<stop  offset="1" style="stop-color:#F04B23"/>
		</linearGradient>
		<path class="st7" d="M243.41,31.05h72.62v14.52h14.52V60.1h-14.52v14.52h14.52v29.05h-14.52v14.52h-72.62V31.05z M272.46,45.57
			V60.1h29.05V45.57H272.46z M272.46,74.62v29.05h29.05V74.62H272.46z"/>
	</g>
</g>
</svg>
